<?xml version="1.0" encoding="UTF-8"?>
<svg id="_Слой_1" data-name="Слой 1" xmlns="http://www.w3.org/2000/svg" viewBox="0 0 1008.53 364.55">
  <defs>
    <style>
      .cls-1 {
        fill: #fff;
        stroke-width: 0px;
      }
    </style>
  </defs>
  <g>
    <path class="cls-1" d="m539.44,228.36h-16.32v-47.7l-48.33,47.7h-5.69v-79.96h16.32v47.57l48.71-47.57h5.31v79.96Z"/>
    <path class="cls-1" d="m549.05,148.4h67.06v14.93h-25.3v65.03h-16.45v-65.03h-25.3v-14.93Z"/>
    <path class="cls-1" d="m622.04,205.07v-16.07h39.1v16.07h-39.1Z"/>
    <path class="cls-1" d="m674.67,165.35h17.46v24.93h5.57l17.58-24.93h20.88l-23.54,30.49,25.81,32.52h-21.51l-18.72-25.05h-6.07v25.05h-17.46v-63.01Z"/>
    <path class="cls-1" d="m806.37,165.35v63.01h-16.95v-48.84h-17.71c0,42.51-6.71,49.47-22.52,49.47-2.15,0-6.07-.26-8.6-.76l1.26-13.41c1.01.13,2.4.13,3.04.13,7.46,0,11.26-4.3,11.26-49.6h50.23Z"/>
    <path class="cls-1" d="m866.21,228.36l-1.65-8.73c-6.07,7.72-12.91,10.13-24.16,10.13-13.41,0-20.75-10.13-20.75-20.88,0-16.07,12.65-22.14,27.08-22.14,5.06,0,11.51.89,15.31,2.4v-2.28c0-7.85-6.71-9.62-12.78-9.62-10.25,0-17.97,2.4-22.77,4.81v-15.19c7.09-2.28,15.56-3.67,25.18-3.67,15.06,0,27.08,6.07,27.08,25.81v39.35h-12.52Zm-4.17-27.21c-3.04-1.89-6.96-2.9-11.52-2.9-9.11,0-13.41,3.28-13.41,10.24,0,4.81,3.54,8.48,9.74,8.48,5.69,0,11.9-3.04,15.19-8.6v-7.22Z"/>
    <path class="cls-1" d="m944.9,181.79c-3.67-2.28-10.5-3.92-16.83-3.92-11.77,0-18.22,6.58-18.22,18.85s6.84,18.98,16.32,18.98c6.46,0,14.17-1.26,19.48-4.43v15.18c-5.82,2.91-13.92,4.05-19.61,4.05-19.23,0-34.03-12.4-34.03-33.27s13.41-34.03,34.66-34.03c5.06,0,13.16,1.01,18.22,3.41v15.18Z"/>
    <path class="cls-1" d="m1007.77,181.79c-3.67-2.28-10.5-3.92-16.83-3.92-11.77,0-18.22,6.58-18.22,18.85s6.84,18.98,16.32,18.98c6.46,0,14.17-1.26,19.48-4.43v15.18c-5.82,2.91-13.92,4.05-19.61,4.05-19.23,0-34.03-12.4-34.03-33.27s13.41-34.03,34.66-34.03c5.06,0,13.16,1.01,18.22,3.41v15.18Z"/>
  </g>
  <g>
    <path class="cls-1" d="m203.24,227.33c0-4.73,3.74-9.54,8.42-9.76v-1.57h-22.3v50.77h22.3v-30.19c-4.67-.22-8.42-4.53-8.42-9.26Z"/>
    <path class="cls-1" d="m142.15,211.75v55.03h22.3v-55.03h-22.3Zm10.52,24.37c-4.85,0-8.78-3.93-8.78-8.78s3.93-8.78,8.78-8.78,8.78,3.93,8.78,8.78-3.93,8.78-8.78,8.78Z"/>
    <path class="cls-1" d="m83.13,94.39v144.09h64.2v-4.35c-2.04-1.61-3.44-3.99-3.44-6.8s1.4-5.19,3.44-6.8v-4.36h-41.89v-99.49h154.88v-22.3H83.13Z"/>
    <polygon class="cls-1" points="316.87 320.04 297.56 308.89 370.65 182.27 298.47 57.24 317.77 46.09 396.41 182.27 316.87 320.04"/>
    <polygon class="cls-1" points="237.27 364.55 80.69 364.55 0 224.78 19.31 213.63 93.57 342.26 237.27 342.26 237.27 364.55"/>
    <polygon class="cls-1" points="19.31 150.91 0 139.76 80.7 0 238.06 0 238.06 22.3 93.56 22.3 19.31 150.91"/>
    <rect class="cls-1" x="120.6" y="264.92" width="115.94" height="22.3"/>
    <path class="cls-1" d="m152.67,249.5c-12.22,0-22.17-9.95-22.17-22.17s9.95-22.17,22.17-22.17,22.17,9.94,22.17,22.17-9.95,22.17-22.17,22.17m0-30.95c-4.84,0-8.79,3.94-8.79,8.79s3.95,8.79,8.79,8.79,8.79-3.95,8.79-8.79-3.94-8.79-8.79-8.79"/>
    <path class="cls-1" d="m274.73,249.5c-12.22,0-22.17-9.95-22.17-22.17s9.95-22.17,22.17-22.17,22.17,9.94,22.17,22.17-9.95,22.17-22.17,22.17m0-30.95c-4.84,0-8.79,3.94-8.79,8.79s3.95,8.79,8.79,8.79,8.79-3.95,8.79-8.79-3.95-8.79-8.79-8.79"/>
    <path class="cls-1" d="m274.73,127.71c-12.22,0-22.17-9.95-22.17-22.17s9.95-22.17,22.17-22.17,22.17,9.94,22.17,22.17-9.95,22.17-22.17,22.17m0-30.95c-4.84,0-8.79,3.94-8.79,8.79s3.95,8.78,8.79,8.78,8.79-3.94,8.79-8.78-3.95-8.79-8.79-8.79"/>
    <path class="cls-1" d="m274.73,188.6c-12.22,0-22.17-9.95-22.17-22.17s9.95-22.17,22.17-22.17,22.17,9.94,22.17,22.17-9.95,22.17-22.17,22.17m0-30.95c-4.84,0-8.79,3.94-8.79,8.79s3.95,8.79,8.79,8.79,8.79-3.95,8.79-8.79-3.95-8.79-8.79-8.79"/>
    <path class="cls-1" d="m274.73,114.32c-4.85,0-8.78-3.93-8.78-8.78,0-.28.13-.51.16-.78l-111.74,113.23,1.16,1.14c2.5.87,4.44,2.78,5.34,5.27l3.03,2.99,111.76-113.24c-.32.03-.59.19-.92.19Z"/>
    <path class="cls-1" d="m212.07,205.17c-12.22,0-22.17,9.94-22.17,22.17s9.95,22.17,22.17,22.17,22.16-9.95,22.16-22.17-9.95-22.17-22.16-22.17Zm0,30.99c-4.87,0-8.82-3.95-8.82-8.82s3.95-8.82,8.82-8.82,8.82,3.95,8.82,8.82-3.95,8.82-8.82,8.82Z"/>
    <path class="cls-1" d="m256.7,171.97l-44.17,45.29,2.47.27c2.18.58,3.96,1.92,5.13,3.79.03.05.07.1.11.16.38.64.67,1.29.88,2.01l.99,3.11,44.16-45.29-9.58-9.34Z"/>
  </g>
</svg>