<?xml version="1.0" encoding="UTF-8"?>
<svg id="_Слой_1" data-name="Слой 1" xmlns="http://www.w3.org/2000/svg" viewBox="0 0 1322.79 364.55">
  <defs>
    <style>
      .cls-1 {
        fill: #fff;
        stroke-width: 0px;
      }
    </style>
  </defs>
  <g>
    <path class="cls-1" d="m467.96,206.91h17.46v24.93h5.57l17.59-24.93h20.87l-23.53,30.49,25.81,32.52h-21.51l-18.72-25.05h-6.07v25.05h-17.46v-63.01Z"/>
    <path class="cls-1" d="m599.66,206.91v63.01h-16.95v-48.84h-17.71c0,42.51-6.71,49.47-22.52,49.47-2.15,0-6.07-.25-8.6-.76l1.27-13.41c1.01.13,2.4.13,3.04.13,7.46,0,11.26-4.3,11.26-49.6h50.23Z"/>
    <path class="cls-1" d="m659.5,269.92l-1.64-8.73c-6.07,7.72-12.91,10.12-24.16,10.12-13.41,0-20.75-10.12-20.75-20.88,0-16.07,12.65-22.14,27.07-22.14,5.06,0,11.52.89,15.31,2.4v-2.28c0-7.85-6.7-9.62-12.78-9.62-10.25,0-17.97,2.4-22.78,4.81v-15.18c7.09-2.28,15.56-3.67,25.18-3.67,15.06,0,27.08,6.07,27.08,25.81v39.35h-12.53Zm-4.17-27.2c-3.03-1.9-6.96-2.91-11.51-2.91-9.11,0-13.41,3.29-13.41,10.25,0,4.81,3.54,8.48,9.74,8.48,5.69,0,11.89-3.04,15.18-8.6v-7.21Z"/>
    <path class="cls-1" d="m738.19,223.36c-3.67-2.28-10.5-3.92-16.83-3.92-11.77,0-18.22,6.58-18.22,18.85s6.83,18.98,16.32,18.98c6.45,0,14.17-1.26,19.48-4.43v15.18c-5.82,2.91-13.92,4.05-19.61,4.05-19.23,0-34.03-12.4-34.03-33.27s13.41-34.03,34.67-34.03c5.06,0,13.16,1.01,18.22,3.42v15.18Z"/>
    <path class="cls-1" d="m801.06,223.36c-3.67-2.28-10.5-3.92-16.83-3.92-11.77,0-18.22,6.58-18.22,18.85s6.83,18.98,16.32,18.98c6.45,0,14.17-1.26,19.48-4.43v15.18c-5.82,2.91-13.92,4.05-19.61,4.05-19.23,0-34.03-12.4-34.03-33.27s13.41-34.03,34.67-34.03c5.06,0,13.16,1.01,18.22,3.42v15.18Z"/>
  </g>
  <g>
    <path class="cls-1" d="m516.54,144.16l-27.07-42.26-6.7,41.5h-16.95l14.3-79.96h4.3l32.13,52,32.39-52h4.18l14.42,79.96h-17.08l-7.34-41.5-26.57,42.26Z"/>
    <path class="cls-1" d="m636.47,141.13c-5.57,3.16-14.55,4.43-22.4,4.43-25.05,0-35.93-15.06-35.93-33.91,0-22.65,16.19-33.27,33.4-33.27,22.14,0,30.24,15.05,30.24,31.5,0,2.66-.38,6.7-.76,9.24h-45.55c1.39,8.86,10,12.27,20.75,12.27,6.33,0,13.41-1.77,20.24-3.92v13.66Zm-11.26-33.53c0-10.12-5.57-14.93-13.66-14.93-9.62,0-15.94,5.57-16.7,14.93h30.36Z"/>
    <path class="cls-1" d="m667.85,143.41v14.93h-14.8v-28.72h7.21c5.57-11.64,6.45-28.85,6.45-44.41v-4.81h50.99v49.22h9.36v28.72h-14.8v-14.93h-44.41Zm33.02-13.79v-35.55h-18.35v2.03c0,10.75-1.01,23.15-5.19,33.53h23.53Z"/>
    <path class="cls-1" d="m800.56,143.41h-16.32v-35.43l-37.2,35.43h-6.45v-63.01h16.32v35.43l37.2-35.43h6.45v63.01Z"/>
    <path class="cls-1" d="m817.5,80.4h17.46v49.34h22.77v-49.34h17.46v49.34h9.11v28.59h-15.31v-14.93h-51.5v-63.01Z"/>
    <path class="cls-1" d="m958.06,143.41h-16.32v-35.43l-37.2,35.43h-6.45v-63.01h16.32v35.43l37.2-35.43h6.45v63.01Z"/>
    <path class="cls-1" d="m1033.59,143.41h-17.46v-24.67h-23.66v24.67h-17.46v-63.01h17.46v24.67h23.66v-24.67h17.46v63.01Z"/>
    <path class="cls-1" d="m1099.75,96.85c-3.67-2.28-10.5-3.92-16.83-3.92-11.77,0-18.22,6.58-18.22,18.85s6.83,18.98,16.32,18.98c6.46,0,14.17-1.26,19.48-4.43v15.18c-5.82,2.91-13.91,4.05-19.61,4.05-19.23,0-34.04-12.4-34.04-33.27s13.41-34.03,34.67-34.03c5.06,0,13.16,1.01,18.22,3.42v15.18Z"/>
    <path class="cls-1" d="m1113.41,80.4h17.46v24.93h5.56l17.59-24.93h20.87l-23.54,30.49,25.81,32.52h-21.51l-18.72-25.05h-6.07v25.05h-17.46v-63.01Z"/>
    <path class="cls-1" d="m1245.87,143.41h-16.32v-35.43l-37.2,35.43h-6.45v-63.01h16.32v35.43l37.2-35.43h6.45v63.01Z"/>
    <path class="cls-1" d="m1322.79,143.41h-16.32v-35.43l-37.2,35.43h-6.45v-63.01h16.32v35.43l37.2-35.43h6.45v63.01Zm-51.24-89.2h13.66c0,5.82,3.42,9.24,9.36,9.24s9.36-3.42,9.36-9.24h13.66c-.12,13.28-9.74,21.64-23.03,21.64s-22.9-8.35-23.03-21.64Z"/>
  </g>
  <polygon class="cls-1" points="189.64 248.7 158.59 207.56 152.09 215.63 76.37 215.63 76.37 193.33 141.42 193.33 159.15 171.29 183.81 203.97 209.13 141.89 232.28 193.33 268.85 193.33 268.85 215.63 217.85 215.63 210.13 198.47 189.64 248.7"/>
  <path class="cls-1" d="m187.77,314.77l-6.68-5c-31.56-23.63-56.43-47.81-71.94-69.95l18.27-12.79c13.08,18.68,33.86,39.25,60.35,59.79,35.65-27.74,88.01-76.99,88.01-127.12,0-22.54-12.48-55.87-39.27-55.87-16.77,0-33.95,22.23-39.15,30.8l-9.85,16.2-9.38-16.47c-4.86-8.47-21.37-30.53-39.02-30.53-9.69,0-17.59,3.34-24.16,10.19-11.26,11.74-15.71,31.17-15.12,45.22.11,2.74.56,6.09,1.3,9.67l-21.85,4.48c-.98-4.79-1.56-9.23-1.72-13.21-.73-17.41,4.41-43.99,21.3-61.6,10.7-11.14,24.61-17.04,40.25-17.04,21.62,0,38.83,15.97,48.83,28.18,10.18-12.23,27.49-28.18,48.58-28.18,42.47,0,61.57,45.71,61.57,78.17,0,59.91-56.36,114.67-103.63,150.05l-6.68,5.01Z"/>
  <polygon class="cls-1" points="316.87 320.04 297.56 308.89 370.67 182.27 298.48 57.24 317.78 46.09 396.41 182.27 316.87 320.04"/>
  <polygon class="cls-1" points="237.27 364.55 80.69 364.55 0 224.78 19.31 213.64 93.57 342.26 237.27 342.26 237.27 364.55"/>
  <polygon class="cls-1" points="19.31 150.91 0 139.76 80.7 0 238.07 0 238.07 22.3 93.57 22.3 19.31 150.91"/>
</svg>