<?xml version="1.0" encoding="UTF-8"?>
<svg id="_Слой_1" data-name="Слой 1" xmlns="http://www.w3.org/2000/svg" viewBox="0 0 1223.72 364.55">
  <defs>
    <style>
      .cls-1 {
        fill: #fff;
        stroke-width: 0px;
      }
    </style>
  </defs>
  <g>
    <path class="cls-1" d="m516.54,219.52l-27.07-42.26-6.7,41.5h-16.95l14.3-79.96h4.3l32.13,52,32.39-52h4.18l14.42,79.96h-17.08l-7.34-41.5-26.57,42.26Z"/>
    <path class="cls-1" d="m636.47,216.48c-5.57,3.16-14.55,4.43-22.39,4.43-25.05,0-35.93-15.06-35.93-33.91,0-22.65,16.19-33.27,33.4-33.27,22.14,0,30.24,15.05,30.24,31.5,0,2.66-.38,6.7-.76,9.23h-45.55c1.39,8.86,10,12.27,20.75,12.27,6.33,0,13.41-1.77,20.24-3.92v13.66Zm-11.26-33.53c0-10.12-5.57-14.93-13.66-14.93-9.62,0-15.94,5.57-16.7,14.93h30.36Z"/>
    <path class="cls-1" d="m667.84,218.76v14.93h-14.8v-28.72h7.21c5.57-11.64,6.45-28.85,6.45-44.41v-4.81h50.99v49.22h9.36v28.72h-14.8v-14.93h-44.41Zm33.02-13.79v-35.55h-18.35v2.03c0,10.75-1.01,23.15-5.19,33.53h23.53Z"/>
    <path class="cls-1" d="m800.55,218.76h-16.32v-35.43l-37.2,35.43h-6.45v-63.01h16.32v35.43l37.2-35.43h6.45v63.01Z"/>
    <path class="cls-1" d="m860.39,218.76l-1.64-8.73c-6.07,7.72-12.91,10.12-24.16,10.12-13.41,0-20.75-10.12-20.75-20.88,0-16.07,12.65-22.14,27.07-22.14,5.06,0,11.52.89,15.31,2.4v-2.28c0-7.85-6.7-9.62-12.78-9.62-10.25,0-17.97,2.4-22.77,4.81v-15.18c7.09-2.28,15.56-3.67,25.18-3.67,15.06,0,27.08,6.07,27.08,25.81v39.35h-12.53Zm-4.17-27.2c-3.03-1.9-6.96-2.91-11.51-2.91-9.11,0-13.41,3.29-13.41,10.25,0,4.81,3.54,8.48,9.74,8.48,5.69,0,11.89-3.04,15.18-8.6v-7.21Z"/>
    <path class="cls-1" d="m889.86,155.75h17.46v24.93h5.57l17.59-24.93h20.87l-23.53,30.49,25.81,32.52h-21.51l-18.72-25.05h-6.07v25.05h-17.46v-63.01Z"/>
    <path class="cls-1" d="m1021.56,155.75v63.01h-16.95v-48.84h-17.71c0,42.51-6.71,49.47-22.52,49.47-2.15,0-6.07-.25-8.6-.76l1.27-13.41c1.01.13,2.4.13,3.04.13,7.46,0,11.26-4.3,11.26-49.6h50.23Z"/>
    <path class="cls-1" d="m1081.39,218.76l-1.65-8.73c-6.07,7.72-12.91,10.12-24.16,10.12-13.41,0-20.75-10.12-20.75-20.88,0-16.07,12.65-22.14,27.08-22.14,5.06,0,11.52.89,15.31,2.4v-2.28c0-7.85-6.71-9.62-12.78-9.62-10.25,0-17.97,2.4-22.78,4.81v-15.18c7.09-2.28,15.57-3.67,25.18-3.67,15.06,0,27.08,6.07,27.08,25.81v39.35h-12.52Zm-4.17-27.2c-3.04-1.9-6.96-2.91-11.52-2.91-9.11,0-13.41,3.29-13.41,10.25,0,4.81,3.54,8.48,9.74,8.48,5.69,0,11.89-3.04,15.18-8.6v-7.21Z"/>
    <path class="cls-1" d="m1160.08,172.2c-3.67-2.28-10.5-3.92-16.83-3.92-11.76,0-18.22,6.58-18.22,18.85s6.83,18.98,16.32,18.98c6.45,0,14.17-1.26,19.48-4.43v15.18c-5.82,2.91-13.92,4.05-19.61,4.05-19.23,0-34.03-12.4-34.03-33.27s13.41-34.03,34.66-34.03c5.06,0,13.16,1.01,18.22,3.42v15.18Z"/>
    <path class="cls-1" d="m1222.96,172.2c-3.67-2.28-10.5-3.92-16.83-3.92-11.76,0-18.22,6.58-18.22,18.85s6.83,18.98,16.32,18.98c6.45,0,14.17-1.26,19.48-4.43v15.18c-5.82,2.91-13.92,4.05-19.61,4.05-19.23,0-34.03-12.4-34.03-33.27s13.41-34.03,34.66-34.03c5.06,0,13.16,1.01,18.22,3.42v15.18Z"/>
  </g>
  <g>
    <polygon class="cls-1" points="316.87 320.04 297.56 308.89 370.65 182.27 298.46 57.24 317.77 46.09 396.41 182.27 316.87 320.04"/>
    <polygon class="cls-1" points="237.27 364.55 80.69 364.55 0 224.78 19.31 213.63 93.57 342.25 237.27 342.26 237.27 364.55"/>
    <polygon class="cls-1" points="19.31 150.91 0 139.76 80.7 0 238.06 0 238.06 22.3 93.56 22.3 19.31 150.91"/>
    <path class="cls-1" d="m246.74,225.5l-7.86-20.87c21.38-8.06,35.74-28.77,35.74-51.54,0-30.41-24.73-55.14-55.14-55.14s-55.13,24.73-55.13,55.14c0,.26.02.52.04.77l.08,1.35-22.29.85-.04-.69c-.06-.76-.1-1.52-.1-2.29,0-42.7,34.74-77.44,77.44-77.44s77.44,34.74,77.44,77.44c0,32-20.16,61.1-50.17,72.41"/>
    <polygon class="cls-1" points="249.06 149.9 200.94 122.11 200.94 177.68 249.06 149.9"/>
    <path class="cls-1" d="m171.79,297.7l-28.6-33.01h-54.39v-120.2h75.25l.41,10.73c1.13,29.72,25.3,53.01,55.02,53.01,6.55,0,13.08-1.21,19.4-3.59l15.07-5.67v65.73h-53.56l-28.6,33.01Zm-60.69-55.31h42.28l18.41,21.26,18.41-21.26h41.46v-12.86c-4.03.66-8.1.98-12.18.98-38.11,0-69.71-27.24-76.16-63.73h-32.22v75.61Z"/>
  </g>
</svg>