<?xml version="1.0" encoding="UTF-8"?>
<svg id="_Слой_1" data-name="Слой 1" xmlns="http://www.w3.org/2000/svg" viewBox="0 0 1901.54 364.55">
  <defs>
    <style>
      .cls-1 {
        fill: #fff;
        stroke-width: 0px;
      }
    </style>
  </defs>
  <g>
    <path class="cls-1" d="m469.09,71.35h68.57v79.96h-17.08v-64.53h-34.41v64.53h-17.08v-79.96Z"/>
    <path class="cls-1" d="m573.21,175.35h-17.46v-87.05h15.06l.76,9.87c4.56-7.97,11.89-12.01,21.64-12.01,20.12,0,29.48,14.42,29.48,32.39s-11.13,34.92-31.25,34.92c-6.83,0-13.29-2.28-18.22-7.85v29.73Zm31.63-56.43c0-10.5-4.81-18.22-15.69-18.22-6.07,0-12.53,2.53-16.07,5.82v26.82c4.68,3.92,9.87,5.31,16.07,5.31,11.13-.12,15.69-9.11,15.69-19.74Z"/>
    <path class="cls-1" d="m689.85,149.03c-5.57,3.16-14.55,4.43-22.39,4.43-25.05,0-35.93-15.06-35.93-33.91,0-22.64,16.19-33.27,33.4-33.27,22.14,0,30.24,15.06,30.24,31.5,0,2.66-.38,6.71-.76,9.23h-45.55c1.39,8.86,10,12.27,20.75,12.27,6.33,0,13.41-1.77,20.24-3.92v13.67Zm-11.26-33.53c0-10.13-5.57-14.93-13.66-14.93-9.62,0-15.94,5.57-16.7,14.93h30.36Z"/>
    <path class="cls-1" d="m721.22,151.31v14.93h-14.8v-28.72h7.21c5.56-11.64,6.45-28.85,6.45-44.41v-4.81h50.99v49.22h9.36v28.72h-14.8v-14.93h-44.41Zm33.02-13.79v-35.55h-18.35v2.02c0,10.75-1.01,23.15-5.18,33.53h23.53Z"/>
    <path class="cls-1" d="m851.66,151.31h-17.46v-49.34h-22.77v49.34h-17.46v-63.01h57.69v63.01Z"/>
    <path class="cls-1" d="m886.06,175.35h-17.46v-87.05h15.06l.76,9.87c4.56-7.97,11.89-12.01,21.64-12.01,20.12,0,29.48,14.42,29.48,32.39s-11.13,34.92-31.25,34.92c-6.83,0-13.29-2.28-18.22-7.85v29.73Zm31.63-56.43c0-10.5-4.81-18.22-15.69-18.22-6.07,0-12.52,2.53-16.07,5.82v26.82c4.68,3.92,9.87,5.31,16.07,5.31,11.13-.12,15.69-9.11,15.69-19.74Z"/>
    <path class="cls-1" d="m1008.02,151.31h-16.32v-35.43l-37.2,35.43h-6.45v-63.01h16.32v35.43l37.2-35.43h6.46v63.01Z"/>
    <path class="cls-1" d="m1083.54,151.31h-17.46v-24.67h-23.66v24.67h-17.46v-63.01h17.46v24.67h23.66v-24.67h17.46v63.01Z"/>
    <path class="cls-1" d="m1160.46,151.31h-16.32v-35.43l-37.2,35.43h-6.45v-63.01h16.32v35.43l37.2-35.43h6.46v63.01Z"/>
    <path class="cls-1" d="m1218.53,152.7l-22.52-31.76-5.57,30.49h-17.08l12.52-63.26h5.69l26.95,39.22,27.07-39.22h5.57l12.52,63.26h-16.95l-6.2-30.62-22.01,31.88Z"/>
    <path class="cls-1" d="m1319.48,151.31l-1.65-8.73c-6.07,7.72-12.91,10.13-24.16,10.13-13.41,0-20.75-10.13-20.75-20.88,0-16.07,12.65-22.14,27.08-22.14,5.06,0,11.51.89,15.31,2.4v-2.28c0-7.85-6.71-9.62-12.78-9.62-10.25,0-17.97,2.4-22.77,4.81v-15.19c7.09-2.28,15.56-3.67,25.18-3.67,15.06,0,27.08,6.07,27.08,25.81v39.35h-12.52Zm-4.17-27.2c-3.04-1.9-6.96-2.91-11.52-2.91-9.11,0-13.41,3.29-13.41,10.24,0,4.81,3.54,8.48,9.74,8.48,5.69,0,11.9-3.04,15.19-8.6v-7.21Z"/>
    <path class="cls-1" d="m1399.56,102.47h-19.23v48.84h-17.46v-48.84h-19.23v-14.17h55.92v14.17Z"/>
    <path class="cls-1" d="m1465.84,149.03c-5.56,3.16-14.55,4.43-22.39,4.43-25.05,0-35.93-15.06-35.93-33.91,0-22.64,16.19-33.27,33.4-33.27,22.14,0,30.24,15.06,30.24,31.5,0,2.66-.38,6.71-.76,9.23h-45.55c1.4,8.86,10,12.27,20.75,12.27,6.33,0,13.41-1.77,20.24-3.92v13.67Zm-11.26-33.53c0-10.13-5.56-14.93-13.66-14.93-9.62,0-15.94,5.57-16.7,14.93h30.37Z"/>
    <path class="cls-1" d="m1544.78,88.3v63.01h-16.95v-48.84h-17.71c0,42.51-6.71,49.47-22.52,49.47-2.15,0-6.07-.25-8.6-.76l1.26-13.41c1.01.13,2.4.13,3.04.13,7.46,0,11.26-4.3,11.26-49.6h50.23Z"/>
    <path class="cls-1" d="m1561.74,88.3h17.46v22.02c4.55-1.27,8.6-1.65,12.52-1.65,16.83,0,26.31,8.86,26.31,20.88,0,13.03-8.85,21.76-24.92,21.76h-31.37v-63.01Zm17.46,49.98h11.01c7.97,0,10.88-4.05,10.88-8.73,0-5.57-4.43-8.23-11.77-8.23-3.54,0-6.96.38-10.12,1.27v15.69Z"/>
    <path class="cls-1" d="m1678.5,104.75c-3.67-2.28-10.5-3.92-16.83-3.92-11.77,0-18.22,6.58-18.22,18.85s6.84,18.97,16.32,18.97c6.46,0,14.17-1.26,19.48-4.43v15.19c-5.82,2.91-13.91,4.05-19.61,4.05-19.23,0-34.03-12.4-34.03-33.27s13.41-34.03,34.66-34.03c5.07,0,13.16,1.01,18.22,3.41v15.19Z"/>
    <path class="cls-1" d="m1692.17,88.3h17.46v24.92h5.56l17.58-24.92h20.88l-23.54,30.49,25.81,32.51h-21.51l-18.73-25.05h-6.07v25.05h-17.46v-63.01Z"/>
    <path class="cls-1" d="m1824.63,151.31h-16.32v-35.43l-37.2,35.43h-6.45v-63.01h16.32v35.43l37.2-35.43h6.46v63.01Z"/>
    <path class="cls-1" d="m1901.54,151.31h-16.32v-35.43l-37.2,35.43h-6.45v-63.01h16.32v35.43l37.2-35.43h6.46v63.01Zm-51.24-89.19h13.66c0,5.82,3.42,9.23,9.36,9.23s9.36-3.42,9.36-9.23h13.66c-.13,13.28-9.74,21.64-23.03,21.64s-22.9-8.35-23.03-21.64Z"/>
    <path class="cls-1" d="m467.95,214.81h17.46v24.92h5.57l17.59-24.92h20.87l-23.53,30.49,25.81,32.51h-21.51l-18.72-25.05h-6.07v25.05h-17.46v-63.01Z"/>
    <path class="cls-1" d="m599.66,214.81v63.01h-16.95v-48.84h-17.71c0,42.51-6.71,49.47-22.52,49.47-2.15,0-6.07-.25-8.6-.76l1.27-13.41c1.01.13,2.4.13,3.04.13,7.46,0,11.26-4.3,11.26-49.6h50.23Z"/>
    <path class="cls-1" d="m659.49,277.82l-1.64-8.73c-6.07,7.72-12.91,10.13-24.16,10.13-13.41,0-20.75-10.13-20.75-20.88,0-16.07,12.65-22.14,27.07-22.14,5.06,0,11.52.89,15.31,2.4v-2.28c0-7.85-6.7-9.62-12.78-9.62-10.25,0-17.97,2.4-22.78,4.81v-15.19c7.09-2.28,15.56-3.67,25.18-3.67,15.06,0,27.08,6.07,27.08,25.81v39.35h-12.53Zm-4.17-27.2c-3.03-1.9-6.96-2.91-11.51-2.91-9.11,0-13.41,3.29-13.41,10.24,0,4.81,3.54,8.48,9.74,8.48,5.69,0,11.89-3.04,15.18-8.6v-7.21Z"/>
    <path class="cls-1" d="m738.18,231.26c-3.67-2.28-10.5-3.92-16.83-3.92-11.77,0-18.22,6.58-18.22,18.85s6.83,18.97,16.32,18.97c6.46,0,14.17-1.26,19.48-4.43v15.19c-5.82,2.91-13.91,4.05-19.61,4.05-19.23,0-34.03-12.4-34.03-33.27s13.41-34.03,34.66-34.03c5.07,0,13.16,1.01,18.22,3.41v15.19Z"/>
    <path class="cls-1" d="m801.06,231.26c-3.67-2.28-10.5-3.92-16.83-3.92-11.77,0-18.22,6.58-18.22,18.85s6.84,18.97,16.32,18.97c6.46,0,14.17-1.26,19.48-4.43v15.19c-5.82,2.91-13.91,4.05-19.61,4.05-19.23,0-34.03-12.4-34.03-33.27s13.41-34.03,34.66-34.03c5.07,0,13.16,1.01,18.22,3.41v15.19Z"/>
  </g>
  <g>
    <polygon class="cls-1" points="316.87 320.83 297.56 309.68 370.65 183.06 298.46 58.03 317.77 46.88 396.41 183.06 316.87 320.83"/>
    <polygon class="cls-1" points="237.27 365.34 80.69 365.34 0 225.57 19.31 214.42 93.57 343.05 237.27 343.05 237.27 365.34"/>
    <polygon class="cls-1" points="19.31 151.7 0 140.55 80.7 .79 238.06 .79 238.06 23.08 93.57 23.08 19.31 151.7"/>
    <rect class="cls-1" x="216.72" y="97.8" width="22.3" height="169.49"/>
    <path class="cls-1" d="m262.44,192.83h-64.97v-22.3h64.97c13.97,0,25.34-11.37,25.34-25.34s-11.37-25.34-25.34-25.34h-33.6v-22.3h33.6c26.26,0,47.63,21.37,47.63,47.63s-21.37,47.63-47.63,47.63"/>
    <rect class="cls-1" x="197.46" y="218.52" width="62.44" height="22.3"/>
    <rect class="cls-1" x="72" y="222.15" width="22.3" height="47.76"/>
    <rect class="cls-1" x="113.12" y="175.84" width="22.3" height="94.08"/>
    <rect class="cls-1" x="154.26" y="133.43" width="22.3" height="136.48"/>
  </g>
</svg>